<svg width="18" height="18" viewBox="0 0 18 18" fill="none" xmlns="http://www.w3.org/2000/svg">
<path d="M5.28305 5H4.14659C2.93858 5 2.3355 5 1.90712 5.265C1.52985 5.498 1.23993 5.865 1.08846 6.304C0.916554 6.803 1.01505 7.444 1.21391 8.724V8.726L2.08089 14.326C2.22864 15.276 2.30205 15.751 2.52228 16.108C2.71742 16.422 2.98968 16.67 3.30934 16.825C3.67175 17 4.11964 17 5.0145 17H12.9855C13.8804 17 14.3273 17 14.6907 16.825C15.0103 16.67 15.2835 16.422 15.4777 16.108C15.698 15.751 15.7714 15.276 15.9182 14.326L16.7861 8.726V8.722C16.9849 7.442 17.0834 6.802 16.9115 6.304C16.7603 5.8654 16.4709 5.49775 16.0938 5.265C15.6654 5 15.0614 5 13.8534 5H12.717M5.28305 5H12.717M5.28305 5C5.28305 3.93913 5.67465 2.92172 6.37172 2.17157C7.06878 1.42143 8.0142 1 9 1C9.9858 1 10.9312 1.42143 11.6283 2.17157C12.3253 2.92172 12.717 3.93913 12.717 5" stroke="#514E49" stroke-width="2" stroke-linecap="round" stroke-linejoin="round"/>
</svg>
