<svg width="16" height="14" viewBox="0 0 16 14" fill="none" xmlns="http://www.w3.org/2000/svg">
<path d="M6 4.12401e-07C5.37935 -0.000324903 4.77387 0.191822 4.26702 0.54996C3.76016 0.908098 3.37688 1.4146 3.17 1.99965H0V3.9993H3.17C3.3766 4.58473 3.75974 5.09168 4.2666 5.45026C4.77346 5.80884 5.37909 6.0014 6 6.0014C6.62091 6.0014 7.22654 5.80884 7.7334 5.45026C8.24026 5.09168 8.6234 4.58473 8.83 3.9993H16V1.99965H8.83C8.62312 1.4146 8.23984 0.908098 7.73298 0.54996C7.22613 0.191822 6.62065 -0.000324903 6 4.12401e-07ZM5 2.99948C5 2.73431 5.10536 2.48 5.29289 2.29249C5.48043 2.10499 5.73478 1.99965 6 1.99965C6.26522 1.99965 6.51957 2.10499 6.70711 2.29249C6.89464 2.48 7 2.73431 7 2.99948C7 3.26465 6.89464 3.51895 6.70711 3.70646C6.51957 3.89396 6.26522 3.9993 6 3.9993C5.73478 3.9993 5.48043 3.89396 5.29289 3.70646C5.10536 3.51895 5 3.26465 5 2.99948ZM10 7.9986C9.37935 7.99827 8.77387 8.19042 8.26702 8.54856C7.76016 8.9067 7.37688 9.4132 7.17 9.99825H0V11.9979H7.17C7.3766 12.5833 7.75974 13.0903 8.2666 13.4489C8.77346 13.8074 9.37909 14 10 14C10.6209 14 11.2265 13.8074 11.7334 13.4489C12.2403 13.0903 12.6234 12.5833 12.83 11.9979H16V9.99825H12.83C12.6231 9.4132 12.2398 8.9067 11.733 8.54856C11.2261 8.19042 10.6207 7.99827 10 7.9986ZM9 10.9981C9 10.7329 9.10536 10.4786 9.29289 10.2911C9.48043 10.1036 9.73478 9.99825 10 9.99825C10.2652 9.99825 10.5196 10.1036 10.7071 10.2911C10.8946 10.4786 11 10.7329 11 10.9981C11 11.2632 10.8946 11.5176 10.7071 11.7051C10.5196 11.8926 10.2652 11.9979 10 11.9979C9.73478 11.9979 9.48043 11.8926 9.29289 11.7051C9.10536 11.5176 9 11.2632 9 10.9981Z" fill="#514E49"/>
</svg>
