<svg width="20" height="20" viewBox="0 0 20 20" fill="none" xmlns="http://www.w3.org/2000/svg">
<rect width="20" height="20" rx="4" fill="url(#paint0_linear_313_1514)"/>
<path d="M8.76197 12.2539L14.7907 6.21381C14.933 6.07127 15.099 6 15.2886 6C15.4783 6 15.6443 6.07127 15.7866 6.21381C15.9289 6.35635 16 6.52573 16 6.72196C16 6.91819 15.9289 7.08734 15.7866 7.2294L9.25992 13.7862C9.11765 13.9287 8.95166 14 8.76197 14C8.57228 14 8.40629 13.9287 8.26402 13.7862L5.2052 10.7216C5.06293 10.5791 4.99464 10.4099 5.00033 10.2142C5.00602 10.0184 5.08024 9.84903 5.22298 9.70601C5.36573 9.563 5.53479 9.49173 5.73018 9.4922C5.92556 9.49268 6.09439 9.56395 6.23666 9.70601L8.76197 12.2539Z" fill="#F4EFE9"/>
<defs>
<linearGradient id="paint0_linear_313_1514" x1="10" y1="0" x2="10" y2="20" gradientUnits="userSpaceOnUse">
<stop stop-color="#47C896"/>
<stop offset="1" stop-color="#47BCC4"/>
</linearGradient>
</defs>
</svg>
