<svg width="64" height="64" viewBox="0 0 64 64" fill="none" xmlns="http://www.w3.org/2000/svg">
<circle cx="32" cy="32" r="32" fill="#514E49"/>
<path d="M44.7521 33.1065L45.0929 31.4025" stroke="#F4EFE9" stroke-width="2" stroke-linecap="round"/>
<path d="M37.1412 42.0805C39.1481 41.1339 43.4798 38.0138 44.7521 33.1064" stroke="#F4EFE9" stroke-width="2" stroke-linecap="round"/>
<path d="M12.8317 44.9204C14.2327 41.7019 19.3293 34.6514 28.5079 32.1977" stroke="#F4EFE9" stroke-width="2" stroke-linecap="round"/>
<path d="M28.5079 32.1977C31.4614 31.4783 37.0276 30.0394 38.3907 29.585C39.7539 29.1306 45.5473 27.1995 49.1823 22.5421" stroke="#F4EFE9" stroke-width="2" stroke-linecap="round"/>
<path d="M49.1831 22.542C49.789 21.7469 51.0688 19.5886 51.3415 17.3166C51.6141 15.0447 51.3793 13.4922 51.2279 13M11.015 45.3748C11.1286 43.633 11.4694 39.854 11.9237 38.6726C12.4917 37.1959 14.65 26.2907 29.6447 24.4732" stroke="#F4EFE9" stroke-width="2" stroke-linecap="round"/>
<path d="M29.6438 24.4732C31.193 24.2872 33.4711 23.9698 35.778 23.5644C39.1095 22.9789 42.5009 22.2115 43.8433 21.4061" stroke="#F4EFE9" stroke-width="2" stroke-linecap="round"/>
<path d="M43.8433 21.4061C45.2443 20.8381 48.4325 19.1796 49.9774 17.0894C51.5223 14.9993 51.4542 13.4922 51.227 13" stroke="#F4EFE9" stroke-width="2" stroke-linecap="round"/>
<path d="M22.7146 40.831C18.6251 42.285 15.1794 44.8447 13.9677 45.9428C13.5133 46.17 11.355 49.0099 11.355 49.2371" stroke="#F4EFE9" stroke-width="2" stroke-linecap="round"/>
<path d="M11.0141 45.3748C10.9763 45.8291 10.9914 47.2377 11.3549 49.237" stroke="#F4EFE9" stroke-width="2" stroke-linecap="round"/>
<path d="M22.7144 40.8309C24.8728 39.9979 29.7119 38.2182 31.8021 37.7639" stroke="#F4EFE9" stroke-width="2" stroke-linecap="round"/>
<path d="M31.8022 37.7639C33.3547 37.3474 36.6641 36.3098 37.482 35.9463C39.3374 35.189 43.4117 33.2655 44.8657 31.6297" stroke="#F4EFE9" stroke-width="2" stroke-linecap="round"/>
<path d="M44.8657 31.6297C45.5094 30.986 46.8877 29.5623 47.2512 29.017C47.7056 28.3354 49.7503 24.7004 49.6367 22.7692" stroke="#F4EFE9" stroke-width="2" stroke-linecap="round"/>
<path d="M49.6366 22.7692V21.8605" stroke="#F4EFE9" stroke-width="2" stroke-linecap="round"/>
<path d="M14.7628 47.4195C16.7317 46.5865 21.0105 44.875 22.3737 44.6932" stroke="#F4EFE9" stroke-width="2" stroke-linecap="round"/>
<path d="M22.3736 44.6932C23.396 44.4282 25.9178 43.8753 27.8262 43.7844C29.7346 43.6936 31.5749 43.5194 32.2565 43.4437C33.4303 43.3301 36.0506 42.8075 37.1411 42.0805" stroke="#F4EFE9" stroke-width="2" stroke-linecap="round"/>
<path d="M12.8318 44.9204C12.4152 45.7156 11.5368 47.6921 11.355 49.237" stroke="#F4EFE9" stroke-width="2" stroke-linecap="round"/>
<path d="M14.7629 47.4195C13.9298 47.7981 12.082 48.6918 11.355 49.237" stroke="#F4EFE9" stroke-width="2" stroke-linecap="round"/>
</svg>
