<svg width="286" height="65" viewBox="0 0 286 65" fill="none" xmlns="http://www.w3.org/2000/svg">
<path d="M85.2734 55L80.6592 12.0312H89.0576L91.4258 39.1553L93.8428 12.0312H101.851L104.146 39.1553L106.44 12.0312H114.937L110.249 55H99.9463L97.7979 34.3213L95.7471 55H85.2734ZM117.305 16.1328V8.85742H126.045V16.1328H117.305ZM117.305 55V18.3789H126.045V55H117.305ZM129.512 55V18.3789H138.252V23.042C138.577 21.6423 139.18 20.4541 140.059 19.4775C140.954 18.4847 142.191 17.9883 143.77 17.9883C146.309 17.9883 148.148 18.7695 149.287 20.332C150.443 21.8945 151.021 24.0348 151.021 26.7529V55H142.402V27.6562C142.402 26.9401 142.256 26.2809 141.963 25.6787C141.67 25.0602 141.165 24.751 140.449 24.751C139.782 24.751 139.285 24.987 138.96 25.459C138.651 25.9147 138.455 26.4925 138.374 27.1924C138.293 27.876 138.252 28.5596 138.252 29.2432V55H129.512ZM164.326 61.3477C162.633 61.3477 161.177 61.2581 159.956 61.0791C158.752 60.9163 157.669 60.6152 156.709 60.1758C155.749 59.7363 154.788 59.1178 153.828 58.3203L156.782 53.2666C158.914 54.5361 161.047 55.1709 163.179 55.1709C164.578 55.1709 165.62 54.7233 166.304 53.8281C166.987 52.9329 167.329 51.7692 167.329 50.3369V46.748C166.629 49.2546 164.766 50.5078 161.738 50.5078C159.997 50.5078 158.589 50.0928 157.515 49.2627C156.44 48.4326 155.659 47.3096 155.171 45.8936C154.683 44.4775 154.438 42.8988 154.438 41.1572V27.998C154.438 26.0286 154.65 24.2952 155.073 22.7979C155.496 21.2842 156.237 20.1042 157.295 19.2578C158.353 18.4115 159.834 17.9883 161.738 17.9883C163.35 17.9883 164.603 18.3952 165.498 19.209C166.41 20.0228 167.02 21.1214 167.329 22.5049V18.3789H176.24V49.7754C176.24 53.9258 175.28 56.888 173.359 58.6621C171.455 60.4525 168.444 61.3477 164.326 61.3477ZM165.278 43.916C166.646 43.916 167.329 42.679 167.329 40.2051V27.7539C167.329 27.0866 167.134 26.403 166.743 25.7031C166.369 25.0033 165.848 24.6533 165.181 24.6533C164.334 24.6533 163.805 24.9707 163.594 25.6055C163.382 26.224 163.276 26.9401 163.276 27.7539V40.2051C163.276 41.084 163.382 41.9222 163.594 42.7197C163.822 43.5173 164.383 43.916 165.278 43.916ZM179.805 55V12.0312H192.988C195.186 12.0312 196.846 12.5358 197.969 13.5449C199.092 14.5378 199.84 15.9375 200.215 17.7441C200.605 19.5345 200.801 21.6423 200.801 24.0674C200.801 26.4111 200.5 28.2829 199.897 29.6826C199.312 31.0824 198.197 32.0508 196.553 32.5879C197.904 32.8646 198.848 33.54 199.385 34.6143C199.938 35.6722 200.215 37.0475 200.215 38.7402V55H191.743V38.1787C191.743 36.9255 191.483 36.1523 190.962 35.8594C190.457 35.5501 189.635 35.3955 188.496 35.3955V55H179.805ZM188.545 27.9492H190.62C191.808 27.9492 192.402 26.6553 192.402 24.0674C192.402 22.391 192.272 21.2923 192.012 20.7715C191.751 20.2507 191.263 19.9902 190.547 19.9902H188.545V27.9492ZM210.542 55.3906C208.589 55.3906 207.091 54.9837 206.05 54.1699C205.024 53.3561 204.325 52.2249 203.95 50.7764C203.576 49.3115 203.389 47.6025 203.389 45.6494V18.3789H212.178V44.624C212.178 46.0889 212.292 47.1143 212.52 47.7002C212.747 48.2699 213.285 48.5547 214.131 48.5547C215.042 48.5547 215.612 48.1478 215.84 47.334C216.084 46.5202 216.206 45.4704 216.206 44.1846V18.3789H224.922V55H216.182V51.0938C215.628 52.4935 214.961 53.5596 214.18 54.292C213.415 55.0244 212.202 55.3906 210.542 55.3906ZM228.438 55V18.3789H237.178V23.042C237.503 21.6423 238.105 20.4541 238.984 19.4775C239.88 18.4847 241.117 17.9883 242.695 17.9883C245.234 17.9883 247.074 18.7695 248.213 20.332C249.368 21.8945 249.946 24.0348 249.946 26.7529V55H241.328V27.6562C241.328 26.9401 241.182 26.2809 240.889 25.6787C240.596 25.0602 240.091 24.751 239.375 24.751C238.708 24.751 238.211 24.987 237.886 25.459C237.576 25.9147 237.381 26.4925 237.3 27.1924C237.218 27.876 237.178 28.5596 237.178 29.2432V55H228.438Z" fill="#F4EFE9"/>
<circle cx="32" cy="33" r="32" fill="#F4EFE9"/>
<path d="M45.7521 35.1065L46.0929 33.4025" stroke="#514E49" stroke-width="2" stroke-linecap="round"/>
<path d="M38.1412 44.0805C40.1481 43.1339 44.4798 40.0138 45.7521 35.1064" stroke="#514E49" stroke-width="2" stroke-linecap="round"/>
<path d="M13.8317 46.9204C15.2327 43.7019 20.3293 36.6514 29.5079 34.1977" stroke="#514E49" stroke-width="2" stroke-linecap="round"/>
<path d="M29.5079 34.1977C32.4614 33.4783 38.0276 32.0394 39.3907 31.585C40.7539 31.1306 46.5473 29.1995 50.1823 24.5421" stroke="#514E49" stroke-width="2" stroke-linecap="round"/>
<path d="M50.1831 24.542C50.789 23.7469 52.0688 21.5886 52.3415 19.3166C52.6141 17.0447 52.3793 15.4922 52.2279 15M12.015 47.3748C12.1286 45.633 12.4694 41.854 12.9237 40.6726C13.4917 39.1959 15.65 28.2907 30.6447 26.4732" stroke="#514E49" stroke-width="2" stroke-linecap="round"/>
<path d="M30.6438 26.4732C32.193 26.2872 34.4711 25.9698 36.778 25.5644C40.1095 24.9789 43.5009 24.2115 44.8433 23.4061" stroke="#514E49" stroke-width="2" stroke-linecap="round"/>
<path d="M44.8433 23.4061C46.2443 22.8381 49.4325 21.1796 50.9774 19.0894C52.5223 16.9993 52.4542 15.4922 52.227 15" stroke="#514E49" stroke-width="2" stroke-linecap="round"/>
<path d="M23.7146 42.831C19.6251 44.285 16.1794 46.8447 14.9677 47.9428C14.5133 48.17 12.355 51.0099 12.355 51.2371" stroke="#514E49" stroke-width="2" stroke-linecap="round"/>
<path d="M12.0141 47.3748C11.9763 47.8291 11.9914 49.2377 12.3549 51.237" stroke="#514E49" stroke-width="2" stroke-linecap="round"/>
<path d="M23.7144 42.8309C25.8728 41.9979 30.7119 40.2182 32.8021 39.7639" stroke="#514E49" stroke-width="2" stroke-linecap="round"/>
<path d="M32.8022 39.7639C34.3547 39.3474 37.6641 38.3098 38.482 37.9463C40.3374 37.189 44.4117 35.2655 45.8657 33.6297" stroke="#514E49" stroke-width="2" stroke-linecap="round"/>
<path d="M45.8657 33.6297C46.5094 32.986 47.8877 31.5623 48.2512 31.017C48.7056 30.3354 50.7503 26.7004 50.6367 24.7692" stroke="#514E49" stroke-width="2" stroke-linecap="round"/>
<path d="M50.6366 24.7692V23.8605" stroke="#514E49" stroke-width="2" stroke-linecap="round"/>
<path d="M15.7628 49.4195C17.7317 48.5865 22.0105 46.875 23.3737 46.6932" stroke="#514E49" stroke-width="2" stroke-linecap="round"/>
<path d="M23.3736 46.6932C24.396 46.4282 26.9178 45.8753 28.8262 45.7844C30.7346 45.6936 32.5749 45.5194 33.2565 45.4437C34.4303 45.3301 37.0506 44.8075 38.1411 44.0805" stroke="#514E49" stroke-width="2" stroke-linecap="round"/>
<path d="M13.8318 46.9204C13.4152 47.7156 12.5368 49.6921 12.355 51.237" stroke="#514E49" stroke-width="2" stroke-linecap="round"/>
<path d="M15.7629 49.4195C14.9298 49.7981 13.082 50.6918 12.355 51.237" stroke="#514E49" stroke-width="2" stroke-linecap="round"/>
</svg>
