<svg width="1400" height="280" viewBox="0 0 1400 280" fill="none" xmlns="http://www.w3.org/2000/svg">
<g clip-path="url(#clip0_615_1845)">
<rect width="1400" height="280" fill="#F4EFE9" fill-opacity="0.6"/>
<path d="M132.969 198.167L197.311 228.284L106.526 280H0V127.52L138.101 0H142.955L132.969 198.167ZM367.075 131.579L493.691 190.846L696.721 0H737.738L721.129 280H304.611L249.291 198.675L213.198 219.234C207.705 179.8 213.141 138.513 231.198 99.9355C252.258 54.9424 287.144 20.7724 328.583 0H598.059L367.075 131.579ZM1072.29 280H848.239C848.951 230.303 859.994 179.865 882.484 131.816C907.502 78.3677 943.863 33.9014 987.276 0H1031.42L1072.29 280ZM1400 280H1238.15L1400 146.544V280ZM1400 63.1523L1355.19 47.4727C1348.49 64.4781 1337.87 79.6543 1323.34 91.6338C1270.46 135.242 1185.86 119.987 1134.38 57.5615C1119.72 39.7768 1109.32 20.0812 1103.18 0H1400V63.1523ZM0 50.334V0H90.9082L0 50.334Z" fill="#514E49" fill-opacity="0.8"/>
<rect width="1400" height="280" fill="#686155" fill-opacity="0.5"/>
</g>
<defs>
<clipPath id="clip0_615_1845">
<rect width="1400" height="280" fill="white"/>
</clipPath>
</defs>
</svg>
