<svg width="1400" height="280" viewBox="0 0 1400 280" fill="none" xmlns="http://www.w3.org/2000/svg">
<g clip-path="url(#clip0_616_1874)">
<rect width="1400" height="280" fill="#F4EFE9" fill-opacity="0.6"/>
<path d="M542.129 169.038L303.782 95.5498L252.13 170.038C305.493 173.357 361.911 192.455 412.957 227.852C435.367 243.391 455.198 261.002 472.242 280H50.9316C55.4772 269.243 61.1391 258.888 67.957 249.056C90.5858 216.422 123.049 193.681 160.854 181.108L156.476 50.1318L27.916 10.4941L0 50.7529V0H411.67L542.129 169.038ZM665.028 280H620.818L485.157 0H882.052L665.028 280ZM868.722 280H755.376L819.326 137.825L868.722 280ZM1108.95 21.6934C1126.78 18.5969 1145.22 19.6301 1163.12 25.4697C1228.28 46.7271 1261.66 123.605 1237.66 197.181C1225.94 233.11 1202.7 261.608 1174.4 278.889L1174.69 280H1017.23C1016.52 267.706 1016.43 255.256 1016.98 242.683C1020.81 156.023 1054.72 77.8873 1108.04 18.1406L1108.95 21.6934ZM1400 280H1282.54L1400 182.861V280ZM1400 11.0498L1366.12 0H1400V11.0498Z" fill="#514E49" fill-opacity="0.8"/>
<rect width="1400" height="280" fill="#686155" fill-opacity="0.5"/>
</g>
<defs>
<clipPath id="clip0_616_1874">
<rect width="1400" height="280" fill="white"/>
</clipPath>
</defs>
</svg>
